<svg xmlns="http://www.w3.org/2000/svg" xmlns:xlink="http://www.w3.org/1999/xlink" contentStyleType="text/css" data-diagram-type="DESCRIPTION" height="298px" preserveAspectRatio="none" style="width:2663px;height:298px;background:#FFFFFF;" version="1.1" viewBox="0 0 2663 298" width="2663px" zoomAndPan="magnify"><title>Agent pipeline &#8212; LangGraph vertices and logical steps</title><defs/><g><g class="title" data-source-line="1"><text fill="#000000" font-family="monospace" font-size="14" font-weight="bold" lengthAdjust="spacing" textLength="446.7217" x="1101.1522" y="22.9951">Agent&#160;pipeline&#160;&#8212;&#160;LangGraph&#160;vertices&#160;and&#160;logical&#160;steps</text></g><!--entity PARSE--><g class="entity" data-entity="PARSE" data-source-line="15" data-uid="ent0002" id="entity_PARSE"><rect fill="#DBEAFE" height="36.2969" rx="4" ry="4" style="stroke:#111111;stroke-width:0.5;" width="138.002" x="130.14" y="55.7128"/><text fill="#111111" font-family="monospace" font-size="14" lengthAdjust="spacing" textLength="118.002" x="140.14" y="78.7079">planning_agent</text></g><!--entity RNODE--><g class="entity" data-entity="RNODE" data-source-line="16" data-uid="ent0003" id="entity_RNODE"><rect fill="#DBEAFE" height="36.2969" rx="4" ry="4" style="stroke:#111111;stroke-width:0.5;" width="87.4297" x="350.22" y="55.7128"/><text fill="#111111" font-family="monospace" font-size="14" lengthAdjust="spacing" textLength="67.4297" x="360.22" y="78.7079">research</text></g><!--entity FUND--><g class="entity" data-entity="FUND" data-source-line="18" data-uid="ent0004" id="entity_FUND"><rect fill="#DBEAFE" height="36.2969" rx="4" ry="4" style="stroke:#111111;stroke-width:0.5;" width="188.5742" x="1010.44" y="113.7128"/><text fill="#111111" font-family="monospace" font-size="14" lengthAdjust="spacing" textLength="168.5742" x="1020.44" y="136.7079">fundamental_analysis</text></g><!--entity MACRO--><g class="entity" data-entity="MACRO" data-source-line="19" data-uid="ent0005" id="entity_MACRO"><rect fill="#DBEAFE" height="36.2969" rx="4" ry="4" style="stroke:#111111;stroke-width:0.5;" width="138.002" x="1035.72" y="184.7128"/><text fill="#111111" font-family="monospace" font-size="14" lengthAdjust="spacing" textLength="118.002" x="1045.72" y="207.7079">macro_analysis</text></g><!--entity SENT--><g class="entity" data-entity="SENT" data-source-line="20" data-uid="ent0006" id="entity_SENT"><rect fill="#DBEAFE" height="36.2969" rx="4" ry="4" style="stroke:#111111;stroke-width:0.5;" width="154.8594" x="1027.3" y="255.7128"/><text fill="#111111" font-family="monospace" font-size="14" lengthAdjust="spacing" textLength="134.8594" x="1037.3" y="278.7079">market_sentiment</text></g><!--entity JUDGE--><g class="entity" data-entity="JUDGE" data-source-line="22" data-uid="ent0007" id="entity_JUDGE"><rect fill="#DBEAFE" height="36.2969" rx="4" ry="4" style="stroke:#111111;stroke-width:0.5;" width="95.8584" x="1260.01" y="142.7128"/><text fill="#111111" font-family="monospace" font-size="14" lengthAdjust="spacing" textLength="75.8584" x="1270.01" y="165.7079">llm_judge</text></g><!--entity SCORE--><g class="entity" data-entity="SCORE" data-source-line="24" data-uid="ent0008" id="entity_SCORE"><rect fill="#DBEAFE" height="36.2969" rx="4" ry="4" style="stroke:#111111;stroke-width:0.5;" width="154.8594" x="1479.87" y="100.7128"/><text fill="#111111" font-family="monospace" font-size="14" lengthAdjust="spacing" textLength="134.8594" x="1489.87" y="123.7079">scenario_scoring</text></g><!--entity DEBATE--><g class="entity" data-entity="DEBATE" data-source-line="25" data-uid="ent0009" id="entity_DEBATE"><rect fill="#DBEAFE" height="36.2969" rx="4" ry="4" style="stroke:#111111;stroke-width:0.5;" width="146.4307" x="1868.73" y="100.7128"/><text fill="#111111" font-family="monospace" font-size="14" lengthAdjust="spacing" textLength="126.4307" x="1878.73" y="123.7079">scenario_debate</text></g><!--entity REPORT--><g class="entity" data-entity="REPORT" data-source-line="26" data-uid="ent0010" id="entity_REPORT"><rect fill="#DBEAFE" height="36.2969" rx="4" ry="4" style="stroke:#111111;stroke-width:0.5;" width="146.4307" x="2076.16" y="151.7128"/><text fill="#111111" font-family="monospace" font-size="14" lengthAdjust="spacing" textLength="126.4307" x="2086.16" y="174.7079">report_finalize</text></g><!--entity QP--><g class="entity" data-entity="QP" data-source-line="29" data-uid="ent0011" id="entity_QP"><rect fill="#FEF3C7" height="36.2969" rx="4" ry="4" style="stroke:#111111;stroke-width:0.5;" width="129.5732" x="329.15" y="143.7128"/><text fill="#111111" font-family="monospace" font-size="14" lengthAdjust="spacing" textLength="109.5732" x="339.15" y="166.7079">query_planner</text></g><!--entity CAPS--><g class="entity" data-entity="CAPS" data-source-line="31" data-uid="ent0012" id="entity_CAPS"><rect fill="#FEF3C7" height="52.5938" rx="4" ry="4" style="stroke:#111111;stroke-width:0.5;" width="197.0029" x="519.72" y="149.5628"/><text fill="#111111" font-family="monospace" font-size="14" lengthAdjust="spacing" textLength="101.1445" x="529.72" y="172.5579">capabilities</text><text fill="#111111" font-family="monospace" font-size="14" lengthAdjust="spacing" textLength="177.0029" x="529.72" y="188.8548">finance&#160;&#183;&#160;macro&#160;&#183;&#160;web</text></g><!--entity NORM--><g class="entity" data-entity="NORM" data-source-line="33" data-uid="ent0013" id="entity_NORM"><rect fill="#FEF3C7" height="36.2969" rx="4" ry="4" style="stroke:#111111;stroke-width:0.5;" width="171.7168" x="777.72" y="157.7128"/><text fill="#111111" font-family="monospace" font-size="14" lengthAdjust="spacing" textLength="151.7168" x="787.72" y="180.7079">normalize_evidence</text></g><!--entity ASMV--><g class="entity" data-entity="ASMV" data-source-line="35" data-uid="ent0014" id="entity_ASMV"><rect fill="#FEF3C7" height="36.2969" rx="4" ry="4" style="stroke:#111111;stroke-width:0.5;" width="180.1455" x="2370.59" y="151.7128"/><text fill="#111111" font-family="monospace" font-size="14" lengthAdjust="spacing" textLength="160.1455" x="2380.59" y="174.7079">assemble&#160;+&#160;validate</text></g><!--entity START--><g class="entity" data-entity="START" data-source-line="37" data-uid="ent0015" id="entity_START"><rect fill="#F1F1F1" height="36.2969" rx="4" ry="4" style="stroke:#111111;stroke-width:0.5;" width="62.1436" x="7" y="55.7128"/><text fill="#111111" font-family="monospace" font-size="14" lengthAdjust="spacing" textLength="42.1436" x="17" y="78.7079">START</text></g><!--entity ENDNODE--><g class="entity" data-entity="ENDNODE" data-source-line="38" data-uid="ent0016" id="entity_ENDNODE"><rect fill="#F1F1F1" height="36.2969" rx="4" ry="4" style="stroke:#111111;stroke-width:0.5;" width="45.2861" x="2611.74" y="151.7128"/><text fill="#111111" font-family="monospace" font-size="14" lengthAdjust="spacing" textLength="25.2861" x="2621.74" y="174.7079">END</text></g><!--link START to PARSE--><g class="link" data-entity-1="START" data-entity-2="PARSE" data-source-line="40" data-uid="lnk17" id="link_START_PARSE"><path d="M69.37,73.8628 C86.49,73.8628 102.64,73.8628 123.73,73.8628" fill="none" id="START-to-PARSE" style="stroke:#111111;stroke-width:1;"/><polygon fill="#111111" points="129.73,73.8628,120.73,69.8628,124.73,73.8628,120.73,77.8628,129.73,73.8628" style="stroke:#111111;stroke-width:1;"/></g><!--link PARSE to RNODE--><g class="link" data-entity-1="PARSE" data-entity-2="RNODE" data-source-line="41" data-uid="lnk18" id="link_PARSE_RNODE"><path d="M268.39,73.8628 C295.47,73.8628 319.79,73.8628 343.74,73.8628" fill="none" id="PARSE-to-RNODE" style="stroke:#111111;stroke-width:1;"/><polygon fill="#111111" points="349.74,73.8628,340.74,69.8628,344.74,73.8628,340.74,77.8628,349.74,73.8628" style="stroke:#111111;stroke-width:1;"/></g><!--link RNODE to QP--><g class="link" data-entity-1="RNODE" data-entity-2="QP" data-source-line="44" data-uid="lnk19" id="link_RNODE_QP"><path d="M393.93,92.3728 C393.93,107.4528 393.93,122.6328 393.93,137.6328" fill="none" id="RNODE-to-QP" style="stroke:#111111;stroke-width:1;"/><polygon fill="#111111" points="393.93,143.6328,397.93,134.6328,393.93,138.6328,389.93,134.6328,393.93,143.6328" style="stroke:#111111;stroke-width:1;"/><text fill="#000000" font-family="monospace" font-size="13" lengthAdjust="spacing" textLength="46.96" x="359.43" y="122.4297">step&#160;1</text></g><!--link QP to CAPS--><g class="link" data-entity-1="QP" data-entity-2="CAPS" data-source-line="45" data-uid="lnk20" id="link_QP_CAPS"><path d="M458.93,165.8928 C477.78,167.0828 492.8719,168.0354 513.3419,169.3254" fill="none" id="QP-to-CAPS" style="stroke:#111111;stroke-width:1;"/><polygon fill="#111111" points="519.33,169.7028,510.5994,165.1447,514.3399,169.3883,510.0962,173.1288,519.33,169.7028" style="stroke:#111111;stroke-width:1;"/></g><!--link CAPS to NORM--><g class="link" data-entity-1="CAPS" data-entity-2="NORM" data-source-line="46" data-uid="lnk21" id="link_CAPS_NORM"><path d="M717.15,175.8628 C737.1,175.8628 751.92,175.8628 771.38,175.8628" fill="none" id="CAPS-to-NORM" style="stroke:#111111;stroke-width:1;"/><polygon fill="#111111" points="777.38,175.8628,768.38,171.8628,772.38,175.8628,768.38,179.8628,777.38,175.8628" style="stroke:#111111;stroke-width:1;"/></g><!--link NORM to FUND--><g class="link" data-entity-1="NORM" data-entity-2="FUND" data-source-line="48" data-uid="lnk22" id="link_NORM_FUND"><path d="M949.9,160.1628 C969.49,156.5628 984.5089,153.7976 1004.4189,150.1376" fill="none" id="NORM-to-FUND" style="stroke:#111111;stroke-width:1;"/><polygon fill="#111111" points="1010.32,149.0528,1000.7451,146.7459,1005.4024,149.9568,1002.1915,154.6141,1010.32,149.0528" style="stroke:#111111;stroke-width:1;"/></g><!--link NORM to MACRO--><g class="link" data-entity-1="NORM" data-entity-2="MACRO" data-source-line="49" data-uid="lnk23" id="link_NORM_MACRO"><path d="M949.9,185.4928 C977.94,188.6628 1002.758,191.4584 1029.368,194.4684" fill="none" id="NORM-to-MACRO" style="stroke:#111111;stroke-width:1;"/><polygon fill="#111111" points="1035.33,195.1428,1026.8366,190.1566,1030.3617,194.5808,1025.9374,198.1059,1035.33,195.1428" style="stroke:#111111;stroke-width:1;"/></g><!--link NORM to SENT--><g class="link" data-entity-1="NORM" data-entity-2="SENT" data-source-line="50" data-uid="lnk24" id="link_NORM_SENT"><path d="M906.16,194.4628 C935.22,207.3128 975.01,224.5728 1010.44,238.8628 C1024.07,244.3628 1033.3224,247.9652 1047.1024,253.1352" fill="none" id="NORM-to-SENT" style="stroke:#111111;stroke-width:1;"/><polygon fill="#111111" points="1052.72,255.2428,1045.6986,248.3362,1048.0386,253.4864,1042.8885,255.8264,1052.72,255.2428" style="stroke:#111111;stroke-width:1;"/></g><!--link FUND to JUDGE--><g class="link" data-entity-1="FUND" data-entity-2="JUDGE" data-source-line="52" data-uid="lnk25" id="link_FUND_JUDGE"><path d="M1199.26,145.3428 C1220.2,148.3628 1235.6114,150.5865 1253.7114,153.1965" fill="none" id="FUND-to-JUDGE" style="stroke:#111111;stroke-width:1;"/><polygon fill="#111111" points="1259.65,154.0528,1251.313,148.8092,1254.7012,153.3392,1250.1712,156.7273,1259.65,154.0528" style="stroke:#111111;stroke-width:1;"/></g><!--link MACRO to JUDGE--><g class="link" data-entity-1="MACRO" data-entity-2="JUDGE" data-source-line="53" data-uid="lnk26" id="link_MACRO_JUDGE"><path d="M1174.13,188.5828 C1202.27,182.7128 1228.2967,177.2791 1253.7767,171.9591" fill="none" id="MACRO-to-JUDGE" style="stroke:#111111;stroke-width:1;"/><polygon fill="#111111" points="1259.65,170.7328,1250.0224,168.6567,1254.7555,171.7547,1251.6575,176.4878,1259.65,170.7328" style="stroke:#111111;stroke-width:1;"/></g><!--link SENT to JUDGE--><g class="link" data-entity-1="SENT" data-entity-2="JUDGE" data-source-line="54" data-uid="lnk27" id="link_SENT_JUDGE"><path d="M1162.54,255.3128 C1174.84,250.5428 1187.58,244.9928 1199.01,238.8628 C1230.79,221.8128 1259.2669,200.3708 1280.2969,183.2508" fill="none" id="SENT-to-JUDGE" style="stroke:#111111;stroke-width:1;"/><polygon fill="#111111" points="1284.95,179.4628,1275.445,182.0427,1281.0724,182.6194,1280.4957,188.2468,1284.95,179.4628" style="stroke:#111111;stroke-width:1;"/></g><!--link JUDGE to RNODE--><g class="link" data-entity-1="JUDGE" data-entity-2="RNODE" data-source-line="56" data-uid="lnk28" id="link_JUDGE_RNODE"><path d="M1286.03,142.2928 C1251.23,113.3728 1178.09,60.8628 1105.73,60.8628 C617.22,60.8628 617.22,60.8628 617.22,60.8628 C554.79,60.8628 488.6382,65.5324 443.8982,69.3524" fill="none" id="JUDGE-to-RNODE" style="stroke:#111111;stroke-width:1;"/><polygon fill="#111111" points="437.92,69.8628,447.2277,73.0826,442.9019,69.4374,446.5471,65.1116,437.92,69.8628" style="stroke:#111111;stroke-width:1;"/><text fill="#000000" font-family="monospace" font-size="13" lengthAdjust="spacing" textLength="156.5332" x="785.58" y="56.9297">retry&#160;/&#160;scoped&#160;retry</text></g><!--link JUDGE to SCORE--><g class="link" data-entity-1="JUDGE" data-entity-2="SCORE" data-source-line="57" data-uid="lnk29" id="link_JUDGE_SCORE"><path d="M1356.34,152.8128 C1391.13,146.9128 1433.2148,139.7678 1473.4748,132.9278" fill="none" id="JUDGE-to-SCORE" style="stroke:#111111;stroke-width:1;"/><polygon fill="#111111" points="1479.39,131.9228,1469.8472,129.4868,1474.4606,132.7603,1471.1871,137.3737,1479.39,131.9228" style="stroke:#111111;stroke-width:1;"/><text fill="#000000" font-family="monospace" font-size="13" lengthAdjust="spacing" textLength="62.6133" x="1386.87" y="133.4197">continue</text></g><!--link JUDGE to REPORT--><g class="link" data-entity-1="JUDGE" data-entity-2="REPORT" data-source-line="58" data-uid="lnk30" id="link_JUDGE_REPORT"><path d="M1356.18,161.3728 C1495.89,162.8728 1901.8903,167.2185 2069.8503,169.0185" fill="none" id="JUDGE-to-REPORT" style="stroke:#111111;stroke-width:1;"/><polygon fill="#111111" points="2075.85,169.0828,2066.8934,164.9866,2070.8503,169.0292,2066.8077,172.9861,2075.85,169.0828" style="stroke:#111111;stroke-width:1;"/><text fill="#000000" font-family="monospace" font-size="13" lengthAdjust="spacing" textLength="172.1865" x="1665.73" y="160.7597">halt&#160;degraded&#160;shortcut</text></g><!--link SCORE to DEBATE--><g class="link" data-entity-1="SCORE" data-entity-2="DEBATE" data-source-line="60" data-uid="lnk31" id="link_SCORE_DEBATE"><path d="M1634.82,118.8628 C1702.86,118.8628 1795.65,118.8628 1862.45,118.8628" fill="none" id="SCORE-to-DEBATE" style="stroke:#111111;stroke-width:1;"/><polygon fill="#111111" points="1868.45,118.8628,1859.45,114.8628,1863.45,118.8628,1859.45,122.8628,1868.45,118.8628" style="stroke:#111111;stroke-width:1;"/></g><!--link DEBATE to REPORT--><g class="link" data-entity-1="DEBATE" data-entity-2="REPORT" data-source-line="62" data-uid="lnk32" id="link_DEBATE_REPORT"><path d="M2015.37,136.8428 C2035.01,141.7228 2050.4464,145.5587 2070.0864,150.4287" fill="none" id="DEBATE-to-REPORT" style="stroke:#111111;stroke-width:1;"/><polygon fill="#111111" points="2075.91,151.8728,2068.1372,145.8243,2071.057,150.6694,2066.2118,153.5891,2075.91,151.8728" style="stroke:#111111;stroke-width:1;"/></g><!--link REPORT to ASMV--><g class="link" data-entity-1="REPORT" data-entity-2="ASMV" data-source-line="64" data-uid="lnk33" id="link_REPORT_ASMV"><path d="M2222.89,169.8628 C2266.9,169.8628 2317.42,169.8628 2364.2,169.8628" fill="none" id="REPORT-to-ASMV" style="stroke:#111111;stroke-width:1;"/><polygon fill="#111111" points="2370.2,169.8628,2361.2,165.8628,2365.2,169.8628,2361.2,173.8628,2370.2,169.8628" style="stroke:#111111;stroke-width:1;"/><text fill="#000000" font-family="monospace" font-size="13" lengthAdjust="spacing" textLength="86.0933" x="2253.59" y="165.9297">export&#160;tail</text></g><!--link ASMV to ENDNODE--><g class="link" data-entity-1="ASMV" data-entity-2="ENDNODE" data-source-line="66" data-uid="lnk34" id="link_ASMV_ENDNODE"><path d="M2551.04,169.8628 C2573.53,169.8628 2589.7,169.8628 2605.36,169.8628" fill="none" id="ASMV-to-ENDNODE" style="stroke:#111111;stroke-width:1;"/><polygon fill="#111111" points="2611.36,169.8628,2602.36,165.8628,2606.36,169.8628,2602.36,173.8628,2611.36,169.8628" style="stroke:#111111;stroke-width:1;"/></g><!--SRC=[TLJDRXCn4BxxAKRjeGTKeOe3A0UaRP9M8FB39kM4jFAkPpUcNdkndPQ2a7W8teKxZyAJCBRpiq7BNkAnl_ayyyqNU-aLGjQWzj393fNK27z-_8HtN3UtbdSRU43hPOKEk1QWJ2Chhi1vx1nJM7lm1gniDXw4j5XvQJHZxbxgZblUGich-yQQhHPZeuo5ypf-FOJRS64UfMwWvifXxqHWpRVAtnZjvxn5c1bjNCSh53rGPgrvt75VnQztc5D1r0Yr-8q1N1ihq9vY0GBzltjvAjXgjF2AVMViOaYGe9EnrGQTjzmJWJO2uSt4CNkuzwnJN6lghk11v3FW3fPPlfh2kIYHrzZ7MdJ8YJ2YylbYSaJrOJKLHtfeprN1DLTFJhgOSdCtdmpnjhoovXGwoyRvOXXhxz4NZkXbkwzuDPsl1qjHgYq-RKM34VRsRd8xNBAhK7ChJU4gOqcDn3fUv8Cw7D02I-uJzsHwdQt_erfdh2zgIVt9hmcTJvUBl5SopM_dt5OgcfVHk_bfuy5XS8j7Q4xcsx_ZynRjKn5dYJRUy7v9NiRwHVNofD6ATxoKIdg9xgCEDUaAuVSlY3C8YqSi8y4uMwu6ARInRUoam0SfaF8ZVhx8PuDuxXos9QsUmGFbYRrYsMhsOJ1XjSxoTPf0MFMFflD9FA3VO3_68W8kBrydrxBatH3d2N01UzT2YxOXMVTLnmVZq8meg30EKjDxuNnGkyJQs81AjcJ9yCHCqexY2mDNZDRXiY0MYug5A4Z1M1GaXC7snoWw-nW6wp8M_naXZ1PboVt7EFhx6B9av4ENL8v5Rv_WEP1_EnGfxC6IbKTGqMCYzHRx3CcA8zXmHOyaaia4CRWDcRRQUf8uvWPeyZXZEwyVindRiOIjEDSHu9TWU_1SAiRYNZZS3-ul]--></g></svg>