<svg xmlns="http://www.w3.org/2000/svg" xmlns:xlink="http://www.w3.org/1999/xlink" contentStyleType="text/css" data-diagram-type="DESCRIPTION" height="476px" preserveAspectRatio="none" style="width:2766px;height:476px;background:#FFFFFF;" version="1.1" viewBox="0 0 2766 476" width="2766px" zoomAndPan="magnify"><title>Agent Node Graph</title><defs/><g><g class="title" data-source-line="1"><text fill="#000000" font-family="monospace" font-size="14" font-weight="bold" lengthAdjust="spacing" textLength="134.8594" x="1308.8684" y="22.9951">Agent&#160;Node&#160;Graph</text></g><!--entity START--><g class="entity" data-entity="START" data-source-line="15" data-uid="ent0002" id="entity_START"><rect fill="#FFFFFF" height="36.2969" rx="4" ry="4" style="stroke:#111111;stroke-width:0.5;" width="62.1436" x="7" y="204.8928"/><text fill="#111111" font-family="monospace" font-size="14" lengthAdjust="spacing" textLength="42.1436" x="17" y="227.8879">START</text></g><!--entity PARSE--><g class="entity" data-entity="PARSE" data-source-line="16" data-uid="ent0003" id="entity_PARSE"><rect fill="#DBEAFE" height="36.2969" rx="4" ry="4" style="stroke:#111111;stroke-width:0.5;" width="121.1445" x="130.14" y="204.8928"/><text fill="#111111" font-family="monospace" font-size="14" lengthAdjust="spacing" textLength="101.1445" x="140.14" y="227.8879">parse_intent</text></g><!--entity RESEARCH--><g class="entity" data-entity="RESEARCH" data-source-line="17" data-uid="ent0004" id="entity_RESEARCH"><rect fill="#DBEAFE" height="36.2969" rx="4" ry="4" style="stroke:#111111;stroke-width:0.5;" width="87.4297" x="312.29" y="204.8928"/><text fill="#111111" font-family="monospace" font-size="14" lengthAdjust="spacing" textLength="67.4297" x="322.29" y="227.8879">research</text></g><!--entity WEBPLAN--><g class="entity" data-entity="WEBPLAN" data-source-line="18" data-uid="ent0005" id="entity_WEBPLAN"><rect fill="#FFFFFF" height="36.2969" rx="4" ry="4" style="stroke:#111111;stroke-width:0.5;" width="188.5742" x="625.72" y="48.8928"/><text fill="#111111" font-family="monospace" font-size="14" lengthAdjust="spacing" textLength="168.5742" x="635.72" y="71.8879">adaptive_web_queries</text></g><!--entity FUND--><g class="entity" data-entity="FUND" data-source-line="20" data-uid="ent0006" id="entity_FUND"><rect fill="#DBEAFE" height="36.2969" rx="4" ry="4" style="stroke:#111111;stroke-width:0.5;" width="188.5742" x="625.72" y="119.8928"/><text fill="#111111" font-family="monospace" font-size="14" lengthAdjust="spacing" textLength="168.5742" x="635.72" y="142.8879">fundamental_analysis</text></g><!--entity MACRO--><g class="entity" data-entity="MACRO" data-source-line="21" data-uid="ent0007" id="entity_MACRO"><rect fill="#DBEAFE" height="36.2969" rx="4" ry="4" style="stroke:#111111;stroke-width:0.5;" width="138.002" x="651" y="190.8928"/><text fill="#111111" font-family="monospace" font-size="14" lengthAdjust="spacing" textLength="118.002" x="661" y="213.8879">macro_analysis</text></g><!--entity SENT--><g class="entity" data-entity="SENT" data-source-line="22" data-uid="ent0008" id="entity_SENT"><rect fill="#DBEAFE" height="36.2969" rx="4" ry="4" style="stroke:#111111;stroke-width:0.5;" width="154.8594" x="642.58" y="261.8928"/><text fill="#111111" font-family="monospace" font-size="14" lengthAdjust="spacing" textLength="134.8594" x="652.58" y="284.8879">market_sentiment</text></g><!--entity JUDGE--><g class="entity" data-entity="JUDGE" data-source-line="23" data-uid="ent0009" id="entity_JUDGE"><rect fill="#DBEAFE" height="36.2969" rx="4" ry="4" style="stroke:#111111;stroke-width:0.5;" width="95.8584" x="1102.29" y="241.8928"/><text fill="#111111" font-family="monospace" font-size="14" lengthAdjust="spacing" textLength="75.8584" x="1112.29" y="264.8879">llm_judge</text></g><!--entity POLICY--><g class="entity" data-entity="POLICY" data-source-line="24" data-uid="ent0010" id="entity_POLICY"><rect fill="#DBEAFE" height="36.2969" rx="4" ry="4" style="stroke:#111111;stroke-width:0.5;" width="129.5732" x="1416.15" y="332.8928"/><text fill="#111111" font-family="monospace" font-size="14" lengthAdjust="spacing" textLength="109.5732" x="1426.15" y="355.8879">policy_router</text></g><!--entity SCORE--><g class="entity" data-entity="SCORE" data-source-line="26" data-uid="ent0011" id="entity_SCORE"><rect fill="#DBEAFE" height="36.2969" rx="4" ry="4" style="stroke:#111111;stroke-width:0.5;" width="154.8594" x="1669.72" y="332.8928"/><text fill="#111111" font-family="monospace" font-size="14" lengthAdjust="spacing" textLength="134.8594" x="1679.72" y="355.8879">scenario_scoring</text></g><!--entity DEBATE--><g class="entity" data-entity="DEBATE" data-source-line="27" data-uid="ent0012" id="entity_DEBATE"><rect fill="#DBEAFE" height="36.2969" rx="4" ry="4" style="stroke:#111111;stroke-width:0.5;" width="146.4307" x="1885.58" y="332.8928"/><text fill="#111111" font-family="monospace" font-size="14" lengthAdjust="spacing" textLength="126.4307" x="1895.58" y="355.8879">scenario_debate</text></g><!--entity D1--><g class="entity" data-entity="D1" data-source-line="28" data-uid="ent0013" id="entity_D1"><rect fill="#FFFFFF" height="36.2969" rx="4" ry="4" style="stroke:#111111;stroke-width:0.5;" width="146.4307" x="2093.01" y="261.8928"/><text fill="#111111" font-family="monospace" font-size="14" lengthAdjust="spacing" textLength="126.4307" x="2103.01" y="284.8879">advocate_call_1</text></g><!--entity D2--><g class="entity" data-entity="D2" data-source-line="29" data-uid="ent0014" id="entity_D2"><rect fill="#FFFFFF" height="36.2969" rx="4" ry="4" style="stroke:#111111;stroke-width:0.5;" width="146.4307" x="2093.01" y="332.8928"/><text fill="#111111" font-family="monospace" font-size="14" lengthAdjust="spacing" textLength="126.4307" x="2103.01" y="355.8879">advocate_call_2</text></g><!--entity D3--><g class="entity" data-entity="D3" data-source-line="30" data-uid="ent0015" id="entity_D3"><rect fill="#FFFFFF" height="36.2969" rx="4" ry="4" style="stroke:#111111;stroke-width:0.5;" width="146.4307" x="2093.01" y="403.8928"/><text fill="#111111" font-family="monospace" font-size="14" lengthAdjust="spacing" textLength="126.4307" x="2103.01" y="426.8879">advocate_call_3</text></g><!--entity DSUM--><g class="entity" data-entity="DSUM" data-source-line="31" data-uid="ent0016" id="entity_DSUM"><rect fill="#FFFFFF" height="36.2969" rx="4" ry="4" style="stroke:#111111;stroke-width:0.5;" width="146.4307" x="2300.44" y="332.8928"/><text fill="#111111" font-family="monospace" font-size="14" lengthAdjust="spacing" textLength="126.4307" x="2310.44" y="355.8879">arbitrator_call</text></g><!--entity REPORT--><g class="entity" data-entity="REPORT" data-source-line="32" data-uid="ent0017" id="entity_REPORT"><rect fill="#DBEAFE" height="36.2969" rx="4" ry="4" style="stroke:#111111;stroke-width:0.5;" width="146.4307" x="2507.87" y="332.8928"/><text fill="#111111" font-family="monospace" font-size="14" lengthAdjust="spacing" textLength="126.4307" x="2517.87" y="355.8879">report_finalize</text></g><!--entity ENDNODE--><g class="entity" data-entity="ENDNODE" data-source-line="33" data-uid="ent0018" id="entity_ENDNODE"><rect fill="#FFFFFF" height="36.2969" rx="4" ry="4" style="stroke:#111111;stroke-width:0.5;" width="45.2861" x="2715.31" y="332.8928"/><text fill="#111111" font-family="monospace" font-size="14" lengthAdjust="spacing" textLength="25.2861" x="2725.31" y="355.8879">END</text></g><!--link START to PARSE--><g class="link" data-entity-1="START" data-entity-2="PARSE" data-source-line="35" data-uid="lnk19" id="link_START_PARSE"><path d="M69.56,223.0428 C86.84,223.0428 103.07,223.0428 123.7,223.0428" fill="none" id="START-to-PARSE" style="stroke:#111111;stroke-width:1;"/><polygon fill="#111111" points="129.7,223.0428,120.7,219.0428,124.7,223.0428,120.7,227.0428,129.7,223.0428" style="stroke:#111111;stroke-width:1;"/></g><!--link PARSE to RESEARCH--><g class="link" data-entity-1="PARSE" data-entity-2="RESEARCH" data-source-line="36" data-uid="lnk20" id="link_PARSE_RESEARCH"><path d="M251.59,223.0428 C271.62,223.0428 287.52,223.0428 306,223.0428" fill="none" id="PARSE-to-RESEARCH" style="stroke:#111111;stroke-width:1;"/><polygon fill="#111111" points="312,223.0428,303,219.0428,307,223.0428,303,227.0428,312,223.0428" style="stroke:#111111;stroke-width:1;"/></g><!--link RESEARCH to WEBPLAN--><g class="link" data-entity-1="RESEARCH" data-entity-2="WEBPLAN" data-source-line="37" data-uid="lnk21" id="link_RESEARCH_WEBPLAN"><path d="M362.87,204.4128 C372.31,177.7728 393.58,129.4328 429.72,106.0428 C487.37,68.7328 559.03,59.9888 619.38,60.0288" fill="none" id="RESEARCH-to-WEBPLAN" style="stroke:#111111;stroke-width:1;"/><polygon fill="#111111" points="625.38,60.0328,616.38,56.0328,620.38,60.0328,616.38,64.0328,625.38,60.0328" style="stroke:#111111;stroke-width:1;"/><text fill="#000000" font-family="monospace" font-size="13" lengthAdjust="spacing" textLength="156.5332" x="434.72" y="56.9297">plan&#160;3-5&#160;web&#160;queries</text></g><!--link WEBPLAN to RESEARCH--><g class="link" data-entity-1="WEBPLAN" data-entity-2="RESEARCH" data-source-line="38" data-uid="lnk22" id="link_WEBPLAN_RESEARCH"><path d="M658.55,85.5828 C647.23,90.1828 635.81,95.6628 625.72,102.0428 C610.04,111.9528 612.17,122.4928 595.72,131.0428 C529.05,165.7028 497.69,131.0328 429.72,163.0428 C408.4,173.0828 392.3112,186.5888 378.6012,200.1788" fill="none" id="WEBPLAN-to-RESEARCH" style="stroke:#111111;stroke-width:1;"/><polygon fill="#111111" points="374.34,204.4028,383.5478,200.9077,377.891,200.8828,377.9159,195.226,374.34,204.4028" style="stroke:#111111;stroke-width:1;"/><text fill="#000000" font-family="monospace" font-size="13" lengthAdjust="spacing" textLength="164.3599" x="430.72" y="127.1097">fallback&#160;if&#160;LLM&#160;fails</text></g><!--link RESEARCH to FUND--><g class="link" data-entity-1="RESEARCH" data-entity-2="FUND" data-source-line="40" data-uid="lnk23" id="link_RESEARCH_FUND"><path d="M400.01,211.5728 C409.76,209.0328 420.09,206.4028 429.72,204.0428 C498.4,187.2428 570.7234,170.7865 628.4934,157.9265" fill="none" id="RESEARCH-to-FUND" style="stroke:#111111;stroke-width:1;"/><polygon fill="#111111" points="634.35,156.6228,624.6959,154.674,629.4695,157.7092,626.4342,162.4828,634.35,156.6228" style="stroke:#111111;stroke-width:1;"/></g><!--link RESEARCH to MACRO--><g class="link" data-entity-1="RESEARCH" data-entity-2="MACRO" data-source-line="41" data-uid="lnk24" id="link_RESEARCH_MACRO"><path d="M399.95,221.3828 C461.94,218.9828 571.1345,214.7647 644.8245,211.9147" fill="none" id="RESEARCH-to-MACRO" style="stroke:#111111;stroke-width:1;"/><polygon fill="#111111" points="650.82,211.6828,641.6721,208.0336,645.8237,211.876,641.9813,216.0276,650.82,211.6828" style="stroke:#111111;stroke-width:1;"/></g><!--link RESEARCH to SENT--><g class="link" data-entity-1="RESEARCH" data-entity-2="SENT" data-source-line="42" data-uid="lnk25" id="link_RESEARCH_SENT"><path d="M399.95,229.8028 C459.6,239.2028 562.573,255.4096 636.373,267.0296" fill="none" id="RESEARCH-to-SENT" style="stroke:#111111;stroke-width:1;"/><polygon fill="#111111" points="642.3,267.9628,634.0317,262.6116,637.3608,267.1851,632.7874,270.5143,642.3,267.9628" style="stroke:#111111;stroke-width:1;"/></g><!--link FUND to JUDGE--><g class="link" data-entity-1="FUND" data-entity-2="JUDGE" data-source-line="44" data-uid="lnk26" id="link_FUND_JUDGE"><path d="M814.52,144.3228 C887.25,151.8328 989.4,168.2628 1072.29,204.0428 C1093.53,213.2128 1109.972,225.2127 1124.662,237.7227" fill="none" id="FUND-to-JUDGE" style="stroke:#111111;stroke-width:1;"/><polygon fill="#111111" points="1129.23,241.6128,1124.9714,232.7322,1125.4233,238.371,1119.7845,238.8229,1129.23,241.6128" style="stroke:#111111;stroke-width:1;"/></g><!--link MACRO to JUDGE--><g class="link" data-entity-1="MACRO" data-entity-2="JUDGE" data-source-line="45" data-uid="lnk27" id="link_MACRO_JUDGE"><path d="M789.31,213.2028 C860.33,218.0928 974.55,227.5728 1072.29,243.0428 C1082.02,244.5828 1086.4934,245.3448 1096.3334,247.4548" fill="none" id="MACRO-to-JUDGE" style="stroke:#111111;stroke-width:1;"/><polygon fill="#111111" points="1102.2,248.7128,1094.2387,242.9147,1097.3111,247.6645,1092.5614,250.7369,1102.2,248.7128" style="stroke:#111111;stroke-width:1;"/></g><!--link SENT to JUDGE--><g class="link" data-entity-1="SENT" data-entity-2="JUDGE" data-source-line="46" data-uid="lnk28" id="link_SENT_JUDGE"><path d="M797.56,276.4728 C885.85,272.3428 1022.2565,265.9722 1095.8365,262.5422" fill="none" id="SENT-to-JUDGE" style="stroke:#111111;stroke-width:1;"/><polygon fill="#111111" points="1101.83,262.2628,1092.6535,258.6862,1096.8354,262.4956,1093.026,266.6775,1101.83,262.2628" style="stroke:#111111;stroke-width:1;"/></g><!--link JUDGE to POLICY--><g class="link" data-entity-1="JUDGE" data-entity-2="POLICY" data-source-line="48" data-uid="lnk29" id="link_JUDGE_POLICY"><path d="M1198.32,273.0828 C1255.39,288.8828 1346.0475,313.9819 1409.9075,331.6619" fill="none" id="JUDGE-to-POLICY" style="stroke:#111111;stroke-width:1;"/><polygon fill="#111111" points="1415.69,333.2628,1408.0836,327.0064,1410.8713,331.9287,1405.949,334.7164,1415.69,333.2628" style="stroke:#111111;stroke-width:1;"/><text fill="#000000" font-family="monospace" font-size="13" lengthAdjust="spacing" textLength="156.5332" x="1229.15" y="278.0997">policy_decision&#160;hint</text></g><!--link POLICY to RESEARCH--><g class="link" data-entity-1="POLICY" data-entity-2="RESEARCH" data-source-line="49" data-uid="lnk30" id="link_POLICY_RESEARCH"><path d="M1415.78,352.7528 C1273.01,355.6128 918.54,357.4728 625.72,316.0428 C536.92,303.4828 512.42,302.7328 429.72,268.0428 C413.15,261.0928 400.9781,254.0123 387.4981,244.9423" fill="none" id="POLICY-to-RESEARCH" style="stroke:#111111;stroke-width:1;"/><polygon fill="#111111" points="382.52,241.5928,387.7541,249.9357,386.6684,244.384,392.2201,243.2983,382.52,241.5928" style="stroke:#111111;stroke-width:1;"/><text fill="#000000" font-family="monospace" font-size="13" lengthAdjust="spacing" textLength="148.7065" x="884.29" y="335.5297">retry_full_research</text></g><!--link POLICY to RESEARCH--><g class="link" data-entity-1="POLICY" data-entity-2="RESEARCH" data-source-line="50" data-uid="lnk31" id="link_POLICY_RESEARCH"><path d="M1415.84,359.4028 C1335.67,369.3828 1194.12,385.4328 1072.29,391.0428 C785.27,404.2728 674.89,469.8728 429.72,320.0428 C398.83,301.1628 379.3081,269.237 368.0581,246.787" fill="none" id="POLICY-to-RESEARCH-1" style="stroke:#111111;stroke-width:1;"/><polygon fill="#111111" points="365.37,241.4228,365.826,251.2611,367.61,245.8929,372.9782,247.677,365.37,241.4228" style="stroke:#111111;stroke-width:1;"/><text fill="#000000" font-family="monospace" font-size="13" lengthAdjust="spacing" textLength="164.3599" x="876.5966" y="372.1097">retry_capability_only</text><text fill="#000000" font-family="monospace" font-size="13" lengthAdjust="spacing" textLength="226.9731" x="845.29" y="387.2425">retry_scope=["cap.fetch_web"]</text></g><!--link POLICY to SCORE--><g class="link" data-entity-1="POLICY" data-entity-2="SCORE" data-source-line="51" data-uid="lnk32" id="link_POLICY_SCORE"><path d="M1545.9,351.0428 C1583.16,351.0428 1624.39,351.0428 1663.62,351.0428" fill="none" id="POLICY-to-SCORE" style="stroke:#111111;stroke-width:1;"/><polygon fill="#111111" points="1669.62,351.0428,1660.62,347.0428,1664.62,351.0428,1660.62,355.0428,1669.62,351.0428" style="stroke:#111111;stroke-width:1;"/><text fill="#000000" font-family="monospace" font-size="13" lengthAdjust="spacing" textLength="62.6133" x="1576.72" y="347.1097">continue</text></g><!--link SCORE to DEBATE--><g class="link" data-entity-1="SCORE" data-entity-2="DEBATE" data-source-line="53" data-uid="lnk33" id="link_SCORE_DEBATE"><path d="M1825.03,351.0428 C1844.66,351.0428 1859.7,351.0428 1879.12,351.0428" fill="none" id="SCORE-to-DEBATE" style="stroke:#111111;stroke-width:1;"/><polygon fill="#111111" points="1885.12,351.0428,1876.12,347.0428,1880.12,351.0428,1876.12,355.0428,1885.12,351.0428" style="stroke:#111111;stroke-width:1;"/></g><!--link DEBATE to D1--><g class="link" data-entity-1="DEBATE" data-entity-2="D1" data-source-line="54" data-uid="lnk34" id="link_DEBATE_D1"><path d="M2013.5,332.4828 C2043.7,322.0428 2075.6093,311.0231 2105.8093,300.5831" fill="none" id="DEBATE-to-D1" style="stroke:#111111;stroke-width:1;"/><polygon fill="#111111" points="2111.48,298.6228,2101.667,297.7828,2106.7544,300.2564,2104.2808,305.3438,2111.48,298.6228" style="stroke:#111111;stroke-width:1;"/></g><!--link DEBATE to D2--><g class="link" data-entity-1="DEBATE" data-entity-2="D2" data-source-line="55" data-uid="lnk35" id="link_DEBATE_D2"><path d="M2032.23,351.0428 C2051.86,351.0428 2067.12,351.0428 2086.76,351.0428" fill="none" id="DEBATE-to-D2" style="stroke:#111111;stroke-width:1;"/><polygon fill="#111111" points="2092.76,351.0428,2083.76,347.0428,2087.76,351.0428,2083.76,355.0428,2092.76,351.0428" style="stroke:#111111;stroke-width:1;"/></g><!--link DEBATE to D3--><g class="link" data-entity-1="DEBATE" data-entity-2="D3" data-source-line="56" data-uid="lnk36" id="link_DEBATE_D3"><path d="M2013.5,369.6028 C2043.7,380.0428 2075.6093,391.0725 2105.8093,401.5125" fill="none" id="DEBATE-to-D3" style="stroke:#111111;stroke-width:1;"/><polygon fill="#111111" points="2111.48,403.4728,2104.2808,396.7518,2106.7544,401.8392,2101.667,404.3128,2111.48,403.4728" style="stroke:#111111;stroke-width:1;"/></g><!--link D1 to DSUM--><g class="link" data-entity-1="D1" data-entity-2="DSUM" data-source-line="57" data-uid="lnk37" id="link_D1_DSUM"><path d="M2220.94,298.6028 C2251.13,309.0428 2283.0393,320.0725 2313.2393,330.5125" fill="none" id="D1-to-DSUM" style="stroke:#111111;stroke-width:1;"/><polygon fill="#111111" points="2318.91,332.4728,2311.7108,325.7518,2314.1844,330.8392,2309.097,333.3128,2318.91,332.4728" style="stroke:#111111;stroke-width:1;"/></g><!--link D2 to DSUM--><g class="link" data-entity-1="D2" data-entity-2="DSUM" data-source-line="58" data-uid="lnk38" id="link_D2_DSUM"><path d="M2239.66,351.0428 C2259.29,351.0428 2274.55,351.0428 2294.19,351.0428" fill="none" id="D2-to-DSUM" style="stroke:#111111;stroke-width:1;"/><polygon fill="#111111" points="2300.19,351.0428,2291.19,347.0428,2295.19,351.0428,2291.19,355.0428,2300.19,351.0428" style="stroke:#111111;stroke-width:1;"/></g><!--link D3 to DSUM--><g class="link" data-entity-1="D3" data-entity-2="DSUM" data-source-line="59" data-uid="lnk39" id="link_D3_DSUM"><path d="M2220.94,403.4828 C2251.13,393.0428 2283.0393,382.0231 2313.2393,371.5831" fill="none" id="D3-to-DSUM" style="stroke:#111111;stroke-width:1;"/><polygon fill="#111111" points="2318.91,369.6228,2309.097,368.7828,2314.1844,371.2564,2311.7108,376.3438,2318.91,369.6228" style="stroke:#111111;stroke-width:1;"/></g><!--link DSUM to REPORT--><g class="link" data-entity-1="DSUM" data-entity-2="REPORT" data-source-line="60" data-uid="lnk40" id="link_DSUM_REPORT"><path d="M2447.09,351.0428 C2466.72,351.0428 2481.98,351.0428 2501.62,351.0428" fill="none" id="DSUM-to-REPORT" style="stroke:#111111;stroke-width:1;"/><polygon fill="#111111" points="2507.62,351.0428,2498.62,347.0428,2502.62,351.0428,2498.62,355.0428,2507.62,351.0428" style="stroke:#111111;stroke-width:1;"/></g><!--link REPORT to ENDNODE--><g class="link" data-entity-1="REPORT" data-entity-2="ENDNODE" data-source-line="62" data-uid="lnk41" id="link_REPORT_ENDNODE"><path d="M2654.53,351.0428 C2676.57,351.0428 2693.16,351.0428 2709.09,351.0428" fill="none" id="REPORT-to-ENDNODE" style="stroke:#111111;stroke-width:1;"/><polygon fill="#111111" points="2715.09,351.0428,2706.09,347.0428,2710.09,351.0428,2706.09,355.0428,2715.09,351.0428" style="stroke:#111111;stroke-width:1;"/></g><!--SRC=[VPHjQzim482_wrSSwUSEaZ0OXGtSsEqs4gSuAMDimoZoET6gI9waj6HZ_trwSLAxkFE7HBfxV3vBZsov5GZ95gM5N5K8jvesEoAmjc0LQBxTMQYuHcQvaeIO1ouRgkaUDfGzRBKwo6gcXD9mKOUhGvWThTGJbrkegJ3OoLHOquEmDqhQdEuH5aegqr26LGTAj5PFRUrnk3h9mZL4vTRr_eS0NB_IYyieNQ7kLm7m3tuPA-BjMgA6T-Gl8VhyYD5gdHJh4L03OTHDkNOCbbnQjuA1k4kALGONrGPfZLrIeq6gsIvGHRRAacBsSGYa5MqiVyJo2JVbhmDgZYRSz2MxlfidUQ-rsdNjbb1QAaeggJWQ7k6R-pmTghwdJAi-kaXcnNAOrGzeI-FAy_tf1LTPlXw2XTYNFm_L5WFr-Jwz7Lo6HWdEZgNRBOiwhjXo_cdszSnsOSDGKirLQPZIpgJOm6nP39O-qnLkg8rzfDbriiw6b_bHCOULZ0fHZYCzVfsOH6BoEZ6DnBH7w0stcbgb0nE9rVsYRqQZj2rhxZQ5_yPMaBjbCRZEMPu6mltdopGZ93W9bvSVedia6kZd9yl8MJSVRJM2AsW4bJ2zV0lED6XD8wTqju1ZtHaM_im3hs4-NxWv5uRqAtld-f6WLZ_a_I4awEcdGHGI5NoU1ycUfoJg5DunskAQZo9LoBXntoROkKD8skoBtZLQVIphWzkZqodyBybeGpTSS7iibHJ7xpA6dOGDllysSkatDLgsyoTqzADRAhfv1SnzORWyE9jZnEUYYgGrCaJ6lTcaDvkIT1n7NfTqqXbFEsFtqxw45yPlI137Xqw6_0C0]--></g></svg>